<?xml version="1.0" standalone="no"?>
<!DOCTYPE svg PUBLIC "-//W3C//DTD SVG 20010904//EN"
 "http://www.w3.org/TR/2001/REC-SVG-20010904/DTD/svg10.dtd">
<svg version="1.0" xmlns="http://www.w3.org/2000/svg"
 width="512.000000pt" height="512.000000pt" viewBox="0 0 512.000000 512.000000"
 preserveAspectRatio="xMidYMid meet">

<g transform="translate(0.000000,512.000000) scale(0.100000,-0.100000)"
fill="#000000" stroke="none">
<path d="M1492 4855 c-63 -30 -72 -37 -64 -52 6 -10 81 -171 167 -358 86 -187
160 -343 164 -348 6 -5 133 44 148 57 3 2 -332 724 -338 731 -2 2 -37 -12 -77
-30z"/>
<path d="M3531 4867 c-5 -12 -81 -177 -170 -367 l-160 -344 71 -33 c40 -19 75
-30 79 -26 4 5 80 166 169 358 89 193 164 353 166 357 5 7 -70 49 -122 68 -21
8 -26 6 -33 -13z"/>
<path d="M2474 4847 c-3 -8 -4 -45 -2 -83 l3 -69 83 -3 83 -3 -3 83 -3 83 -78
3 c-59 2 -79 0 -83 -11z"/>
<path d="M440 4435 l-55 -55 58 -58 57 -57 57 57 58 58 -55 55 c-30 30 -57 55
-60 55 -3 0 -30 -25 -60 -55z"/>
<path d="M4550 4435 l-55 -55 58 -58 57 -57 57 57 58 58 -55 55 c-30 30 -57
55 -60 55 -3 0 -30 -25 -60 -55z"/>
<path d="M2474 4357 c-3 -8 -4 -45 -2 -83 l3 -69 80 0 80 0 0 80 0 80 -78 3
c-59 2 -79 0 -83 -11z"/>
<path d="M787 4092 l-57 -58 58 -57 58 -57 57 58 57 58 -58 57 -58 57 -57 -58z"/>
<path d="M4207 4092 l-57 -58 58 -57 58 -57 57 58 57 58 -58 57 -58 57 -57
-58z"/>
<path d="M2445 3874 c-133 -18 -188 -29 -254 -49 -279 -83 -505 -240 -674
-464 -348 -462 -356 -1086 -20 -1553 34 -47 120 -140 206 -222 217 -206 304
-348 345 -563 l16 -83 491 0 492 0 13 72 c25 142 84 278 170 391 21 29 103
113 182 188 159 151 244 260 313 404 87 179 125 332 132 535 8 220 -34 415
-132 615 -212 434 -641 712 -1125 729 -69 2 -138 3 -155 0z m2 -226 l23 -21 0
-1034 0 -1034 -25 -24 c-21 -22 -33 -25 -98 -25 -91 0 -154 21 -201 66 -44 42
-65 82 -74 137 -8 42 -8 42 -59 48 -104 13 -215 102 -250 199 -15 43 -21 48
-61 59 -186 49 -319 264 -282 454 17 86 53 159 109 216 43 44 49 55 54 107 12
114 107 249 211 298 22 10 36 24 36 35 0 10 14 46 31 80 23 46 46 75 85 105
30 22 54 48 54 56 1 60 106 199 188 247 95 56 217 71 259 31z m436 -11 c76
-35 160 -115 197 -190 16 -33 30 -68 30 -77 0 -9 20 -30 45 -48 51 -36 101
-107 117 -167 9 -33 20 -46 60 -70 106 -64 184 -179 195 -291 5 -50 11 -61 54
-105 162 -166 153 -421 -20 -581 -54 -51 -143 -98 -184 -98 -7 0 -20 -22 -30
-48 -35 -99 -146 -188 -250 -201 l-51 -6 -8 -44 c-22 -128 -121 -201 -275
-201 -65 0 -77 3 -98 25 l-25 24 0 1032 0 1033 23 24 c20 22 28 24 93 20 47
-3 89 -13 127 -31z"/>
<path d="M2275 3478 c-59 -32 -125 -130 -125 -186 0 -38 -18 -61 -66 -84 -62
-29 -96 -81 -96 -148 0 -87 68 -160 150 -160 49 0 83 -37 93 -99 8 -51 48
-121 70 -121 5 0 9 156 9 405 0 223 -3 405 -7 405 -5 0 -17 -6 -28 -12z"/>
<path d="M1807 2903 c-41 -43 -67 -111 -67 -175 0 -74 -4 -82 -60 -123 -87
-64 -126 -194 -86 -289 32 -77 122 -145 192 -146 61 0 114 68 114 145 0 53 48
100 93 91 55 -11 71 -36 69 -108 -2 -82 -45 -171 -108 -227 -45 -39 -45 -40
-30 -70 9 -16 30 -40 48 -53 29 -20 45 -23 125 -23 121 0 127 -6 132 -120 3
-80 5 -86 33 -110 16 -14 34 -25 39 -25 5 0 9 167 9 413 l0 413 -47 22 c-27
12 -65 36 -86 53 -39 32 -97 122 -97 150 0 10 -17 23 -44 33 -64 24 -131 79
-162 131 -14 25 -29 45 -33 45 -4 0 -19 -12 -34 -27z"/>
<path d="M2800 3085 c0 -249 4 -405 9 -405 21 0 62 70 70 120 11 66 35 90 100
101 92 14 144 72 145 161 0 62 -37 118 -97 146 -46 22 -54 35 -77 124 -14 52
-66 120 -111 143 -15 8 -30 15 -34 15 -3 0 -5 -182 -5 -405z"/>
<path d="M3232 2881 c-34 -56 -91 -101 -158 -127 -27 -10 -44 -23 -44 -33 0
-28 -58 -118 -97 -150 -21 -17 -59 -41 -85 -53 l-48 -22 0 -413 c0 -227 2
-413 5 -413 17 0 55 26 63 44 6 11 12 56 14 98 5 107 12 113 133 113 104 0
133 12 168 74 l19 31 -50 48 c-63 59 -102 138 -103 214 -2 63 12 95 47 108 39
15 53 12 85 -19 21 -22 29 -39 29 -66 0 -77 53 -145 114 -145 43 1 105 31 143
71 99 104 81 277 -37 364 -56 41 -60 49 -60 123 0 64 -26 132 -67 175 -15 15
-30 27 -33 27 -4 0 -21 -22 -38 -49z"/>
<path d="M1130 3745 l-55 -55 58 -58 57 -57 57 57 58 58 -55 55 c-30 30 -57
55 -60 55 -3 0 -30 -25 -60 -55z"/>
<path d="M3860 3745 l-55 -55 58 -58 57 -57 57 57 58 58 -55 55 c-30 30 -57
55 -60 55 -3 0 -30 -25 -60 -55z"/>
<path d="M195 3403 c-14 -32 -27 -66 -28 -76 -2 -15 64 -48 352 -178 195 -87
358 -159 361 -159 6 0 72 142 67 146 -2 2 -688 310 -713 321 -7 2 -24 -21 -39
-54z"/>
<path d="M4525 3299 c-192 -87 -354 -160 -358 -161 -8 -3 54 -148 64 -148 11
0 703 312 713 321 10 9 -47 143 -61 145 -5 1 -165 -70 -358 -157z"/>
<path d="M270 2325 l0 -85 80 0 80 0 0 85 0 85 -80 0 -80 0 0 -85z"/>
<path d="M760 2325 l0 -85 80 0 80 0 0 85 0 85 -80 0 -80 0 0 -85z"/>
<path d="M4190 2325 l0 -85 80 0 80 0 0 85 0 85 -80 0 -80 0 0 -85z"/>
<path d="M4680 2325 l0 -85 80 0 80 0 0 85 0 85 -80 0 -80 0 0 -85z"/>
<path d="M598 1581 c-191 -86 -348 -161 -348 -167 0 -7 14 -41 30 -77 l31 -65
312 140 c172 77 335 150 364 163 l52 23 -32 71 c-20 44 -38 71 -47 70 -8 -1
-171 -71 -362 -158z"/>
<path d="M4107 1678 c-15 -35 -27 -67 -27 -73 0 -5 162 -83 360 -171 l361
-162 29 65 c17 36 30 71 30 77 0 11 -671 318 -708 324 -13 2 -25 -15 -45 -60z"/>
<path d="M1207 1092 l-57 -58 58 -57 58 -57 57 58 57 58 -58 57 -58 57 -57
-58z"/>
<path d="M3787 1092 l-57 -58 58 -57 58 -57 57 58 57 58 -58 57 -58 57 -57
-58z"/>
<path d="M860 745 l-55 -55 58 -58 57 -57 57 57 58 58 -55 55 c-30 30 -57 55
-60 55 -3 0 -30 -25 -60 -55z"/>
<path d="M4130 745 l-55 -55 58 -58 57 -57 57 57 58 58 -55 55 c-30 30 -57 55
-60 55 -3 0 -30 -25 -60 -55z"/>
<path d="M2070 695 l0 -85 485 0 485 0 0 85 0 85 -485 0 -485 0 0 -85z"/>
<path d="M517 402 l-57 -58 58 -57 58 -57 57 58 57 58 -58 57 -58 57 -57 -58z"/>
<path d="M4482 407 c-29 -29 -52 -57 -52 -63 0 -5 24 -33 53 -62 l53 -52 57
58 57 58 -58 57 -58 57 -52 -53z"/>
<path d="M2070 370 l0 -80 485 0 485 0 0 80 0 80 -485 0 -485 0 0 -80z"/>
</g>
</svg>
