<?xml version="1.0" encoding="UTF-8"?><svg xmlns="http://www.w3.org/2000/svg" viewBox="0 0 100.91 118.13"><defs><style>.cls-1{fill:#646464;}.cls-1,.cls-2{mix-blend-mode:soft-light;}.cls-3{isolation:isolate;}.cls-4{fill:#eabc3d;}.cls-5{fill:#7abbee;}.cls-6{fill:#c82525;}.cls-7{fill:#76796e;}.cls-8{fill:#dd4739;}.cls-9{fill:#c22424;}.cls-10{fill:#dd6d27;}.cls-11{opacity:.13;}.cls-11,.cls-12{fill:#fff;}.cls-12{opacity:.31;}.cls-2{fill:#5a2d1d;}</style></defs><g class="cls-3"><g id="Layer_2"><g id="OBJECTS"><g><path class="cls-10" d="M28.52,61.66c-2.3,.56-5.54,1.74-8.18,4.47-2.31,2.39-2.94,4.72-3.96,6.82-1.56,3.23-4.78,7.47-12.19,11.22l4.85-.75c-2.13,2.52-4.75,6.27-6.62,11.27-3.85,10.27-2.2,19.46-1.22,23.43,.83-2.31,2.44-5.87,5.73-8.89,5.98-5.5,12.02-4.21,17.97-9.4,2.09-1.82,4.87-5.05,6.62-10.96,.44,1.03,.89,2.44,1.07,4.14,.34,3.29-.53,5.91-1.11,7.29,3.7-2.37,5.8-4.92,7.02-6.78,2.18-3.32,2.3-5.55,4.67-9.84,1.77-3.21,3.68-5.55,4.99-7-6.55-5.01-13.09-10.02-19.64-15.03Z"/><path class="cls-4" d="M28.52,66.76c-2.07,.91-5.31,2.66-8.41,5.85-2.68,2.77-4.25,5.58-5.13,7.51,1.5-.42,2.93-.6,3.52-.08,.16,1.39-1.52,5.4-2.4,8.08-1.36,4.11-4.14,6.47-5.31,7.35,2.35-.03,6.04-.37,10.14-2.08,5.72-2.38,10.25-7.49,11.87-9.5,1.11,.89,2.27,2.52,1.82,4.81,1.06-.58,3.19-2.47,4.64-4.39,2.19-2.9,2.55-5.93,2.63-7.21-4.45-3.45-8.9-6.91-13.36-10.36Z"/><path class="cls-9" d="M46.99,82.8c-3.43-1.3-8.6-3.72-13.81-8.22-5.88-5.07-9.21-10.52-10.96-13.95,2.22-2.48,4.43-4.95,6.65-7.43l24.76,22.16-6.65,7.43Z"/><path class="cls-8" d="M95.45,30.7l5.34-24.4c.84-3.85-2.75-7.2-6.53-6.09l-25.77,7.57c-6.57,1.93-12.33,5.96-16.39,11.48L24.54,56.74c2.45,3.92,6.33,9.18,12.2,14.25,5.08,4.39,10.05,7.25,13.9,9.1l32.98-29.23c5.98-5.3,10.12-12.36,11.83-20.16Z"/><path class="cls-9" d="M86.93,47.53c-14.45-5.75-27.47-15.83-34.5-28.69-.11,.14-.22,.28-.32,.42l-13.53,18.39c6.36,11.88,17.6,21.97,30.27,26.29,4.92-4.36,9.84-8.72,14.77-13.08,1.18-1.04,2.28-2.16,3.31-3.33Z"/><path class="cls-6" d="M24.54,56.74c-.07-.55-.27-1.44-.97-1.98-1.73-1.33-5.59,.28-9.43,2.54-4.52-4.56,.41,.41-4.12-4.15,5.46-9.08,13.87-20.18,22.16-19.06,1.44,.2,3.74,.88,6.38,3.56-4.68,6.36-9.36,12.72-14.04,19.08Z"/><path class="cls-9" d="M50.61,80.07c.55,0,1.46,.11,2.07,.74,1.51,1.57,.34,5.58-1.48,9.65,5.03,3.99-.45-.36,4.58,3.63,8.42-6.43,18.52-16.02,16.49-24.14-.35-1.41-1.29-3.62-4.25-5.95-5.8,5.35-11.61,10.71-17.41,16.06Z"/><path class="cls-1" d="M85.19,2.88l-16.71,4.91c-6.57,1.93-12.33,5.96-16.39,11.48L24.53,56.74c2.45,3.92,6.33,9.18,12.2,14.25,5.08,4.39,10.05,7.25,13.9,9.1,1.42-1.26,2.84-2.52,4.27-3.78-1.35-26.91,10.96-53.97,30.31-73.43Z"/><circle class="cls-2" cx="75.31" cy="25.23" r="10.2" transform="translate(41.82 97.24) rotate(-83.58)"/><path class="cls-7" d="M84.11,31.75c-3.76,4.2-10.2,4.55-14.4,.8-4.2-3.76-4.55-10.2-.8-14.4,3.76-4.2,10.2-4.55,14.4-.8,4.2,3.76,4.55,10.2,.8,14.4Z"/><path class="cls-5" d="M70.42,19.5c-3.01,3.36-2.72,8.52,.64,11.53,3.36,3.01,8.52,2.72,11.53-.64,3.01-3.36,2.72-8.52-.64-11.53-3.36-3.01-8.52-2.72-11.53,.64Z"/><path class="cls-2" d="M76.34,28.02c-3.26-2.91-3.62-7.85-.9-11.21-1.88,.24-3.69,1.12-5.05,2.65-3.01,3.36-2.72,8.52,.64,11.53,3.36,3.01,8.52,2.72,11.53-.64,.09-.1,.17-.21,.26-.32-2.27,.29-4.64-.36-6.48-2.01Z"/><path class="cls-12" d="M81,19.53c-.34-.24-.73-.45-1.15-.45-.42,0-.86,.23-.99,.63-.17,.54,.26,1.07,.61,1.51,.52,.66,.93,1.42,1.19,2.22,.14,.43,.24,.87,.49,1.24,.25,.37,.71,.65,1.14,.53,1.16-.31,.83-2.07,.59-2.88-.32-1.1-.95-2.14-1.89-2.81Z"/><path class="cls-11" d="M94.26,.22l-3.55,1.04c4.97,20.63-3.45,40.72-16.86,58.25,3.25-2.88,6.51-5.77,9.76-8.65,5.98-5.3,10.12-12.36,11.83-20.16l5.34-24.4c.84-3.85-2.75-7.2-6.53-6.09Z"/></g></g></g></g></svg>