<?xml version="1.0" encoding="UTF-8"?><svg xmlns="http://www.w3.org/2000/svg" viewBox="0 0 718.78 455.87"><defs><style>.cls-1,.cls-2,.cls-3{fill:#fff;}.cls-4{isolation:isolate;}.cls-2{opacity:.57;}.cls-5{mix-blend-mode:soft-light;opacity:.8;}.cls-3{opacity:.28;}</style></defs><g class="cls-4"><g id="Layer_2"><g id="BACKGROUND_2"><g><path class="cls-1" d="M39.26,25.47c0,.98-.79,1.77-1.77,1.77s-1.77-.79-1.77-1.77,.79-1.77,1.77-1.77,1.77,.79,1.77,1.77Z"/><path class="cls-1" d="M90.29,36.37c0,.98-.79,1.77-1.77,1.77s-1.77-.79-1.77-1.77,.79-1.77,1.77-1.77,1.77,.79,1.77,1.77Z"/><path class="cls-1" d="M3.6,5.45c0,.98-.79,1.77-1.77,1.77S.07,6.42,.07,5.45s.79-1.77,1.77-1.77,1.77,.79,1.77,1.77Z"/><path class="cls-1" d="M218.82,31.37c0,.98-.79,1.77-1.77,1.77s-1.77-.79-1.77-1.77,.79-1.77,1.77-1.77,1.77,.79,1.77,1.77Z"/><path class="cls-1" d="M57.29,12.25c0,.49-.4,.88-.88,.88s-.88-.4-.88-.88,.4-.88,.88-.88,.88,.4,.88,.88Z"/><path class="cls-1" d="M93.62,7.7c0,.49-.4,.88-.88,.88s-.88-.4-.88-.88,.4-.88,.88-.88,.88,.4,.88,.88Z"/><path class="cls-1" d="M56.95,61.7c0,.49-.4,.88-.88,.88s-.88-.4-.88-.88,.4-.88,.88-.88,.88,.4,.88,.88Z"/><circle class="cls-1" cx="74.11" cy="72.1" r=".49"/><circle class="cls-1" cx="100.99" cy="55.82" r=".49"/><circle class="cls-1" cx="89.88" cy="66.73" r=".49"/><circle class="cls-1" cx="83.78" cy="75.17" r=".49"/><circle class="cls-1" cx="84.37" cy="61.48" r=".49"/><circle class="cls-1" cx="33.17" cy="93.04" r=".88"/><circle class="cls-1" cx="174.61" cy="5.11" r=".88"/><path class="cls-1" d="M38.29,156.37c0,.98-.79,1.77-1.77,1.77s-1.77-.79-1.77-1.77,.79-1.77,1.77-1.77,1.77,.79,1.77,1.77Z"/><path class="cls-1" d="M24.9,248.99c0,.98-.79,1.77-1.77,1.77s-1.77-.79-1.77-1.77,.79-1.77,1.77-1.77,1.77,.79,1.77,1.77Z"/><path class="cls-1" d="M166.05,113.14c0,.98-.79,1.77-1.77,1.77s-1.77-.79-1.77-1.77,.79-1.77,1.77-1.77,1.77,.79,1.77,1.77Z"/><g class="cls-5"><polygon class="cls-3" points="163.77 112.99 164.49 91.82 164.91 112.85 164.77 136.45 163.77 112.99"/><polygon class="cls-3" points="164.49 112.56 185.66 113.28 164.63 113.71 141.03 113.56 164.49 112.56"/><polygon class="cls-2" points="163.98 112.7 175.79 102.62 164.62 113.25 151.77 124.83 163.98 112.7"/><polygon class="cls-2" points="164.56 112.87 174.64 124.68 164.01 113.52 152.43 100.67 164.56 112.87"/></g><path class="cls-1" d="M283.83,65.15c0,.98-.79,1.77-1.77,1.77s-1.77-.79-1.77-1.77,.79-1.77,1.77-1.77,1.77,.79,1.77,1.77Z"/><circle class="cls-1" cx="129.8" cy="68.03" r=".88"/><path class="cls-1" d="M1.77,147.64c0,.49-.4,.88-.88,.88s-.88-.4-.88-.88,.4-.88,.88-.88,.88,.4,.88,.88Z"/><path class="cls-1" d="M122.42,117.84c0,.49-.4,.88-.88,.88s-.88-.4-.88-.88,.4-.88,.88-.88,.88,.4,.88,.88Z"/><path class="cls-1" d="M149.24,176.61c0,.49-.4,.88-.88,.88s-.88-.4-.88-.88,.4-.88,.88-.88,.88,.4,.88,.88Z"/><path class="cls-1" d="M85.75,171.84c0,.49-.4,.88-.88,.88s-.88-.4-.88-.88,.4-.88,.88-.88,.88,.4,.88,.88Z"/><path class="cls-1" d="M5.77,70.98c0,.49-.4,.88-.88,.88s-.88-.4-.88-.88,.4-.88,.88-.88,.88,.4,.88,.88Z"/><path class="cls-1" d="M97.01,201.98c0,.49-.4,.88-.88,.88s-.88-.4-.88-.88,.4-.88,.88-.88,.88,.4,.88,.88Z"/><circle class="cls-1" cx="102.91" cy="182.23" r=".49"/><circle class="cls-1" cx="129.79" cy="165.95" r=".49"/><circle class="cls-1" cx="180.72" cy="127.98" r=".49"/><circle class="cls-1" cx="118.67" cy="176.86" r=".49"/><circle class="cls-1" cx="126.99" cy="197.7" r=".49"/><circle class="cls-1" cx="159.35" cy="197.58" r=".49"/><circle class="cls-1" cx="227.73" cy="173.77" r=".49"/><circle class="cls-1" cx="112.57" cy="185.3" r=".49"/><circle class="cls-1" cx="161.18" cy="223.84" r=".49"/><path class="cls-1" d="M113.26,171.13c.27,.05,.44,.31,.38,.58-.05,.26-.31,.44-.58,.38-.27-.05-.44-.31-.38-.58,.05-.26,.31-.44,.58-.38Z"/><circle class="cls-1" cx="100.29" cy="242.86" r=".49"/><circle class="cls-1" cx="83.29" cy="129.86" r=".49"/><circle class="cls-1" cx="114.66" cy="141.53" r=".49"/><circle class="cls-1" cx="48.84" cy="138.97" r=".49"/><circle class="cls-1" cx="1.95" cy="239.22" r=".49"/><circle class="cls-1" cx="38.34" cy="236.17" r=".49"/><circle class="cls-1" cx="61.97" cy="203.17" r=".88"/><path class="cls-1" d="M45.45,274.97c0,.49-.4,.88-.88,.88s-.88-.4-.88-.88,.4-.88,.88-.88,.88,.4,.88,.88Z"/><path class="cls-1" d="M258.2,25.47c0,.98-.79,1.77-1.77,1.77s-1.77-.79-1.77-1.77,.79-1.77,1.77-1.77,1.77,.79,1.77,1.77Z"/><circle class="cls-1" cx="352.3" cy="24.15" r="1.77"/><path class="cls-1" d="M222.54,5.45c0,.98-.79,1.77-1.77,1.77s-1.77-.79-1.77-1.77,.79-1.77,1.77-1.77,1.77,.79,1.77,1.77Z"/><path class="cls-1" d="M239.71,69.09c.29,.93-.23,1.92-1.17,2.21s-1.92-.23-2.21-1.17,.23-1.92,1.17-2.21,1.92,.23,2.21,1.17Z"/><circle class="cls-1" cx="275.35" cy="12.25" r=".88"/><path class="cls-1" d="M312.56,7.7c0,.49-.4,.88-.88,.88s-.88-.4-.88-.88,.4-.88,.88-.88,.88,.4,.88,.88Z"/><path class="cls-1" d="M275.9,61.7c0,.49-.4,.88-.88,.88s-.88-.4-.88-.88,.4-.88,.88-.88,.88,.4,.88,.88Z"/><circle class="cls-1" cx="249.3" cy="117.66" r=".49"/><circle class="cls-1" cx="319.94" cy="55.82" r=".49"/><circle class="cls-1" cx="308.82" cy="66.73" r=".49"/><circle class="cls-1" cx="302.72" cy="75.17" r=".49"/><circle class="cls-1" cx="176.79" cy="67.15" r=".49"/><path class="cls-1" d="M253,93.04c0,.49-.4,.88-.88,.88s-.88-.4-.88-.88,.4-.88,.88-.88,.88,.4,.88,.88Z"/><path class="cls-1" d="M394.44,5.11c0,.49-.4,.88-.88,.88s-.88-.4-.88-.88,.4-.88,.88-.88,.88,.4,.88,.88Z"/><path class="cls-1" d="M120.8,290.98c.29,.93-.23,1.92-1.17,2.21s-1.92-.23-2.21-1.17,.23-1.92,1.17-2.21,1.92,.23,2.21,1.17Z"/><path class="cls-1" d="M83.04,310.45c.29,.93-.23,1.92-1.17,2.21s-1.92-.23-2.21-1.17,.23-1.92,1.17-2.21,1.92,.23,2.21,1.17Z"/><path class="cls-1" d="M42.53,397.77c.29,.93-.23,1.92-1.17,2.21s-1.92-.23-2.21-1.17,.23-1.92,1.17-2.21,1.92,.23,2.21,1.17Z"/><path class="cls-1" d="M213.45,162.79c.29,.93-.23,1.92-1.17,2.21s-1.92-.23-2.21-1.17,.23-1.92,1.17-2.21,1.92,.23,2.21,1.17Z"/><circle class="cls-1" cx="501.01" cy="65.15" r="1.77"/><circle class="cls-1" cx="367.3" cy="62.03" r=".88"/><path class="cls-1" d="M220.71,147.64c0,.49-.4,.88-.88,.88s-.88-.4-.88-.88,.4-.88,.88-.88,.88,.4,.88,.88Z"/><circle class="cls-1" cx="308.3" cy="100.15" r=".88"/><circle class="cls-1" cx="423.3" cy="126.03" r=".88"/><path class="cls-1" d="M304.69,171.84c0,.49-.4,.88-.88,.88s-.88-.4-.88-.88,.4-.88,.88-.88,.88,.4,.88,.88Z"/><path class="cls-1" d="M224.71,70.98c0,.49-.4,.88-.88,.88s-.88-.4-.88-.88,.4-.88,.88-.88,.88,.4,.88,.88Z"/><path class="cls-1" d="M153.44,268.83c.14,.47-.12,.96-.58,1.1s-.96-.12-1.1-.58,.12-.96,.58-1.1,.96,.12,1.1,.58Z"/><circle class="cls-1" cx="321.85" cy="182.23" r=".49"/><circle class="cls-1" cx="348.73" cy="165.95" r=".49"/><circle class="cls-1" cx="399.66" cy="127.98" r=".49"/><circle class="cls-1" cx="390.81" cy="99.15" r=".49"/><circle class="cls-1" cx="345.93" cy="197.7" r=".49"/><circle class="cls-1" cx="448.3" cy="88.64" r=".49"/><circle class="cls-1" cx="446.67" cy="173.77" r=".49"/><circle class="cls-1" cx="288.86" cy="260.2" r=".49"/><circle class="cls-1" cx="348.85" cy="230.8" r=".49"/><circle class="cls-1" cx="87.3" cy="24.66" r=".49"/><circle class="cls-1" cx="380.12" cy="223.84" r=".49"/><circle class="cls-1" cx="394.82" cy="216.18" r=".49"/><circle class="cls-1" cx="392.02" cy="206.86" r=".49"/><path class="cls-1" d="M332.21,171.13c.27,.05,.44,.31,.38,.58-.05,.26-.31,.44-.58,.38-.27-.05-.44-.31-.38-.58,.05-.26,.31-.44,.58-.38Z"/><circle class="cls-1" cx="282.86" cy="266.8" r=".49"/><circle class="cls-1" cx="302.23" cy="129.86" r=".49"/><circle class="cls-1" cx="333.6" cy="141.53" r=".49"/><circle class="cls-1" cx="604.53" cy="92.84" r=".49"/><circle class="cls-1" cx="631.41" cy="76.56" r=".49"/><circle class="cls-1" cx="628.61" cy="108.31" r=".49"/><path class="cls-1" d="M614.88,81.73c.27,.05,.44,.31,.38,.58-.05,.27-.31,.44-.58,.38-.27-.05-.44-.31-.38-.58,.05-.27,.31-.44,.58-.38Z"/><circle class="cls-1" cx="616.28" cy="52.14" r=".49"/><circle class="cls-1" cx="267.78" cy="138.97" r=".49"/><circle class="cls-1" cx="623.79" cy="25.86" r=".49"/><path class="cls-1" d="M436.63,96.14c.12,.97-.56,1.85-1.53,1.97s-1.85-.56-1.97-1.53c-.12-.97,.56-1.85,1.53-1.97,.97-.12,1.85,.56,1.97,1.53Z"/><path class="cls-1" d="M433.66,58.9c.29,.93-.23,1.92-1.17,2.21s-1.92-.23-2.21-1.17,.23-1.92,1.17-2.21,1.92,.23,2.21,1.17Z"/><path class="cls-1" d="M683.68,8.35c0,.49-.4,.88-.88,.88s-.88-.4-.88-.88,.4-.88,.88-.88,.88,.4,.88,.88Z"/><circle class="cls-1" cx="678.3" cy="80.03" r=".88"/><path class="cls-1" d="M656.68,123.23c0,.49-.4,.88-.88,.88s-.88-.4-.88-.88,.4-.88,.88-.88,.88,.4,.88,.88Z"/><circle class="cls-1" cx="696.34" cy="90.43" r=".49"/><path class="cls-1" d="M706.7,79.33c.27,.05,.44,.31,.38,.58-.05,.27-.31,.44-.58,.38-.26-.05-.44-.31-.38-.58,.05-.27,.31-.44,.58-.38Z"/><path class="cls-1" d="M677.21,38.06c0,.27-.22,.49-.49,.49s-.49-.22-.49-.49,.22-.49,.49-.49,.49,.22,.49,.49Z"/><path class="cls-1" d="M708.58,49.73c0,.27-.22,.49-.49,.49s-.49-.22-.49-.49,.22-.49,.49-.49,.49,.22,.49,.49Z"/><circle class="cls-1" cx="642.28" cy="47.17" r=".49"/><circle class="cls-1" cx="220.89" cy="239.22" r=".49"/><circle class="cls-1" cx="257.28" cy="236.17" r=".49"/><circle class="cls-1" cx="199.3" cy="220.27" r=".88"/><circle class="cls-1" cx="234.19" cy="285.15" r=".88"/><circle class="cls-1" cx="621.2" cy="179.77" r=".49"/><path class="cls-1" d="M631.3,213.15c0,.98-.79,1.77-1.77,1.77s-1.77-.79-1.77-1.77,.79-1.77,1.77-1.77,1.77,.79,1.77,1.77Z"/><path class="cls-1" d="M698.16,177.84c0,.49-.4,.88-.88,.88s-.88-.4-.88-.88,.4-.88,.88-.88,.88,.4,.88,.88Z"/><circle class="cls-1" cx="674.77" cy="221.03" r=".88"/><circle class="cls-1" cx="614.36" cy="245.22" r=".49"/><circle class="cls-1" cx="650.75" cy="242.17" r=".49"/><path class="cls-1" d="M628.54,291.15c0,.49-.4,.88-.88,.88s-.88-.4-.88-.88,.4-.88,.88-.88,.88,.4,.88,.88Z"/><path class="cls-1" d="M491.9,92.47c0,.49-.4,.88-.88,.88s-.88-.4-.88-.88,.4-.88,.88-.88,.88,.4,.88,.88Z"/><circle class="cls-1" cx="465.3" cy="148.43" r=".49"/><circle class="cls-1" cx="535.94" cy="86.59" r=".49"/><circle class="cls-1" cx="367.3" cy="27.66" r=".49"/><circle class="cls-1" cx="576.3" cy="19.64" r=".49"/><circle class="cls-1" cx="525.3" cy="46.66" r=".49"/><circle class="cls-1" cx="518.72" cy="105.93" r=".49"/><path class="cls-1" d="M403.45,90.03c-.27,.04-.52-.14-.56-.41s.14-.52,.41-.56c.27-.04,.52,.14,.56,.41,.04,.27-.14,.52-.41,.56Z"/><path class="cls-1" d="M469,123.8c0,.49-.4,.88-.88,.88s-.88-.4-.88-.88,.4-.88,.88-.88,.88,.4,.88,.88Z"/><circle class="cls-1" cx="188.42" cy="19.15" r=".88"/><path class="cls-1" d="M453.83,237.92c0,.98-.79,1.77-1.77,1.77s-1.77-.79-1.77-1.77,.79-1.77,1.77-1.77,1.77,.79,1.77,1.77Z"/><path class="cls-1" d="M188.25,321.49c.29,.93-.23,1.92-1.17,2.21s-1.92-.23-2.21-1.17,.23-1.92,1.17-2.21,1.92,.23,2.21,1.17Z"/><path class="cls-1" d="M258.07,306.07c.29,.93-.23,1.92-1.17,2.21s-1.92-.23-2.21-1.17,.23-1.92,1.17-2.21,1.92,.23,2.21,1.17Z"/><path class="cls-1" d="M196.83,353.41c.29,.93-.23,1.92-1.17,2.21s-1.92-.23-2.21-1.17,.23-1.92,1.17-2.21,1.92,.23,2.21,1.17Z"/><path class="cls-1" d="M368.54,299.53c0,.98-.79,1.77-1.77,1.77s-1.77-.79-1.77-1.77,.79-1.77,1.77-1.77,1.77,.79,1.77,1.77Z"/><path class="cls-1" d="M148.92,302.76c.29,.93-.23,1.92-1.17,2.21s-1.92-.23-2.21-1.17,.23-1.92,1.17-2.21,1.92,.23,2.21,1.17Z"/><path class="cls-1" d="M428.9,128.39c.29,.93-.23,1.92-1.17,2.21s-1.92-.23-2.21-1.17,.23-1.92,1.17-2.21,1.92,.23,2.21,1.17Z"/><path class="cls-1" d="M718.78,95.92c0,.98-.79,1.77-1.77,1.77s-1.77-.79-1.77-1.77,.79-1.77,1.77-1.77,1.77,.79,1.77,1.77Z"/><path class="cls-1" d="M584.19,92.8c0,.49-.4,.88-.88,.88s-.88-.4-.88-.88,.4-.88,.88-.88,.88,.4,.88,.88Z"/><path class="cls-1" d="M436.71,178.41c0,.49-.4,.88-.88,.88s-.88-.4-.88-.88,.4-.88,.88-.88,.88,.4,.88,.88Z"/><circle class="cls-1" cx="568.3" cy="42.03" r=".88"/><circle class="cls-1" cx="557.3" cy="11.27" r=".88"/><path class="cls-1" d="M640.19,156.8c0,.49-.4,.88-.88,.88s-.88-.4-.88-.88,.4-.88,.88-.88,.88,.4,.88,.88Z"/><circle class="cls-1" cx="541.19" cy="133.15" r=".88"/><circle class="cls-1" cx="439.83" cy="101.75" r=".88"/><path class="cls-1" d="M498.19,245.8c0,.49-.4,.88-.88,.88s-.88-.4-.88-.88,.4-.88,.88-.88,.88,.4,.88,.88Z"/><circle class="cls-1" cx="537.85" cy="213" r=".49"/><circle class="cls-1" cx="564.73" cy="196.72" r=".49"/><circle class="cls-1" cx="615.66" cy="158.75" r=".49"/><circle class="cls-1" cx="596.71" cy="134.33" r=".49"/><path class="cls-1" d="M512.45,187.53c0,.98-.79,1.77-1.77,1.77s-1.77-.79-1.77-1.77,.79-1.77,1.77-1.77,1.77,.79,1.77,1.77Z"/><path class="cls-1" d="M441.06,350.96c0,.98-.79,1.77-1.77,1.77s-1.77-.79-1.77-1.77,.79-1.77,1.77-1.77,1.77,.79,1.77,1.77Z"/><circle class="cls-1" cx="458.05" cy="370.6" r=".88"/><circle class="cls-1" cx="550.41" cy="342.25" r=".88"/><circle class="cls-1" cx="488.13" cy="361.59" r=".49"/><circle class="cls-1" cx="514.24" cy="322.91" r=".49"/><circle class="cls-1" cx="540.79" cy="321.15" r=".49"/><circle class="cls-1" cx="425.81" cy="329.15" r=".49"/><circle class="cls-1" cx="664.3" cy="119.41" r=".49"/><circle class="cls-1" cx="662.67" cy="204.54" r=".49"/><circle class="cls-1" cx="517.3" cy="360.66" r=".49"/><circle class="cls-1" cx="575.3" cy="325.64" r=".49"/><path class="cls-1" d="M548.21,201.9c.27,.05,.44,.31,.38,.58-.05,.27-.31,.44-.58,.38-.27-.05-.44-.31-.38-.58,.05-.27,.31-.44,.58-.38Z"/><path class="cls-1" d="M538.3,281.15c.26,.05,.44,.31,.38,.58-.05,.27-.31,.44-.58,.38-.27-.05-.44-.31-.38-.58,.05-.27,.31-.44,.58-.38Z"/><circle class="cls-1" cx="492.81" cy="322.15" r=".49"/><circle class="cls-1" cx="518.23" cy="160.62" r=".49"/><path class="cls-1" d="M550.09,172.3c0,.27-.22,.49-.49,.49s-.49-.22-.49-.49,.22-.49,.49-.49,.49,.22,.49,.49Z"/><circle class="cls-1" cx="483.78" cy="169.74" r=".49"/><circle class="cls-1" cx="566.59" cy="252.72" r=".49"/><path class="cls-1" d="M599.47,350.1c0,.49-.4,.88-.88,.88s-.88-.4-.88-.88,.4-.88,.88-.88,.88,.4,.88,.88Z"/><circle class="cls-1" cx="639.14" cy="317.29" r=".49"/><circle class="cls-1" cx="666.02" cy="301.02" r=".49"/><circle class="cls-1" cx="699.79" cy="246.15" r=".49"/><path class="cls-1" d="M649.49,306.19c.27,.05,.44,.31,.38,.58-.05,.27-.31,.44-.58,.38s-.44-.31-.38-.58c.05-.27,.31-.44,.58-.38Z"/><circle class="cls-1" cx="514.96" cy="40.01" r=".49"/><circle class="cls-1" cx="491.47" cy="79.52" r=".49"/><circle class="cls-1" cx="549.47" cy="44.5" r=".49"/><path class="cls-1" d="M537.07,23.55c-.22,.15-.53,.1-.68-.13-.15-.22-.1-.53,.13-.68,.22-.15,.53-.1,.68,.13,.15,.22,.1,.53-.13,.68Z"/><path class="cls-1" d="M512.47,0c.27,.05,.44,.31,.38,.58-.05,.26-.31,.44-.58,.38-.27-.05-.44-.31-.38-.58,.05-.27,.31-.44,.58-.38Z"/><circle class="cls-1" cx="466.98" cy="41.01" r=".49"/><path class="cls-1" d="M573.64,68.95c0,.49-.4,.88-.88,.88s-.88-.4-.88-.88,.4-.88,.88-.88,.88,.4,.88,.88Z"/><circle class="cls-1" cx="596.3" cy="9.03" r=".88"/><circle class="cls-1" cx="613.3" cy="36.15" r=".49"/><path class="cls-1" d="M623.66,25.05c.27,.05,.44,.31,.38,.58-.05,.27-.31,.44-.58,.38-.27-.05-.44-.31-.38-.58,.05-.27,.31-.44,.58-.38Z"/><circle class="cls-1" cx="619.52" cy="264.92" r=".49"/><circle class="cls-1" cx="650.89" cy="276.6" r=".49"/><circle class="cls-1" cx="707.81" cy="203.15" r=".49"/><circle class="cls-1" cx="585.07" cy="274.03" r=".49"/><circle class="cls-1" cx="436.89" cy="269.99" r=".49"/><circle class="cls-1" cx="393.95" cy="327.49" r=".49"/><circle class="cls-1" cx="473.28" cy="266.93" r=".49"/><circle class="cls-1" cx="438.81" cy="333.15" r=".49"/><circle class="cls-1" cx="415.3" cy="251.03" r=".88"/><path class="cls-1" d="M407.76,211.96c0,.49-.4,.88-.88,.88s-.88-.4-.88-.88,.4-.88,.88-.88,.88,.4,.88,.88Z"/><path class="cls-1" d="M115.05,247.33c0,.98-.79,1.77-1.77,1.77s-1.77-.79-1.77-1.77,.79-1.77,1.77-1.77,1.77,.79,1.77,1.77Z"/><path class="cls-1" d="M39.24,234.35c0,.49-.4,.88-.88,.88s-.88-.4-.88-.88,.4-.88,.88-.88,.88,.4,.88,.88Z"/><path class="cls-1" d="M154.24,260.23c0,.49-.4,.88-.88,.88s-.88-.4-.88-.88,.4-.88,.88-.88,.88,.4,.88,.88Z"/><path class="cls-1" d="M34.75,306.03c0,.49-.4,.88-.88,.88s-.88-.4-.88-.88,.4-.88,.88-.88,.88,.4,.88,.88Z"/><path class="cls-1" d="M12.24,349.23c0,.49-.4,.88-.88,.88s-.88-.4-.88-.88,.4-.88,.88-.88,.88,.4,.88,.88Z"/><circle class="cls-1" cx="51.91" cy="316.43" r=".49"/><circle class="cls-1" cx="78.79" cy="300.15" r=".49"/><circle class="cls-1" cx="129.72" cy="262.18" r=".49"/><circle class="cls-1" cx="120.87" cy="233.35" r=".49"/><circle class="cls-1" cx="75.99" cy="331.9" r=".49"/><circle class="cls-1" cx="59.85" cy="380.35" r=".49"/><circle class="cls-1" cx="117.8" cy="353.64" r=".49"/><path class="cls-1" d="M62.26,305.33c.27,.05,.44,.31,.38,.58-.05,.26-.31,.44-.58,.38-.26-.05-.44-.31-.38-.58,.05-.27,.31-.44,.58-.38Z"/><circle class="cls-1" cx="49.29" cy="377.06" r=".49"/><circle class="cls-1" cx="32.29" cy="264.06" r=".49"/><circle class="cls-1" cx="63.66" cy="275.73" r=".49"/><circle class="cls-1" cx="135.81" cy="224.15" r=".49"/><path class="cls-1" d="M649.24,337.61c0,.49-.4,.88-.88,.88s-.88-.4-.88-.88,.4-.88,.88-.88,.88,.4,.88,.88Z"/><path class="cls-1" d="M585.75,332.84c0,.49-.4,.88-.88,.88s-.88-.4-.88-.88,.4-.88,.88-.88,.88,.4,.88,.88Z"/><path class="cls-1" d="M597.01,362.98c0,.49-.4,.88-.88,.88s-.88-.4-.88-.88,.4-.88,.88-.88,.88,.4,.88,.88Z"/><circle class="cls-1" cx="602.91" cy="343.23" r=".49"/><circle class="cls-1" cx="75.49" cy="358.84" r=".88"/><circle class="cls-1" cx="104.82" cy="407.98" r=".49"/><circle class="cls-1" cx="20.91" cy="418.07" r=".49"/><path class="cls-1" d="M177.64,383.47c0,.27-.22,.49-.49,.49s-.49-.22-.49-.49,.22-.49,.49-.49,.49,.22,.49,.49Z"/><path class="cls-1" d="M116.49,394.19c.27,.05,.44,.31,.38,.58-.05,.27-.31,.44-.58,.38s-.44-.31-.38-.58c.05-.27,.31-.44,.58-.38Z"/><circle class="cls-1" cx="56.84" cy="408.98" r=".49"/><circle class="cls-1" cx="121.81" cy="374.15" r=".49"/><path class="cls-1" d="M201.32,407.93c0,.49-.4,.88-.88,.88s-.88-.4-.88-.88,.4-.88,.88-.88,.88,.4,.88,.88Z"/><circle class="cls-1" cx="163.26" cy="387.07" r=".49"/><circle class="cls-1" cx="186.71" cy="390.67" r=".88"/><path class="cls-1" d="M265.14,394.39c0,.49-.4,.88-.88,.88s-.88-.4-.88-.88,.4-.88,.88-.88,.88,.4,.88,.88Z"/><circle class="cls-1" cx="204.75" cy="401.06" r=".49"/><circle class="cls-1" cx="629.79" cy="326.95" r=".49"/><circle class="cls-1" cx="618.67" cy="337.86" r=".49"/><circle class="cls-1" cx="626.99" cy="358.7" r=".49"/><circle class="cls-1" cx="701.3" cy="326.66" r=".49"/><circle class="cls-1" cx="659.35" cy="358.58" r=".49"/><circle class="cls-1" cx="612.57" cy="346.3" r=".49"/><circle class="cls-1" cx="475.63" cy="310.99" r=".49"/><path class="cls-1" d="M613.26,332.13c.27,.05,.44,.31,.38,.58-.05,.27-.31,.44-.58,.38-.27-.05-.44-.31-.38-.58,.05-.26,.31-.44,.58-.38Z"/><circle class="cls-1" cx="481.41" cy="297.17" r=".49"/><path class="cls-1" d="M713.59,274.56c0,.98-.79,1.77-1.77,1.77s-1.77-.79-1.77-1.77,.79-1.77,1.77-1.77,1.77,.79,1.77,1.77Z"/><circle class="cls-1" cx="699.3" cy="381.27" r=".88"/><path class="cls-1" d="M496.18,301.64c0,.98-.79,1.77-1.77,1.77s-1.77-.79-1.77-1.77,.79-1.77,1.77-1.77,1.77,.79,1.77,1.77Z"/><circle class="cls-1" cx="679.11" cy="364.41" r=".88"/><circle class="cls-1" cx="510.84" cy="316.48" r=".49"/><circle class="cls-1" cx="501.99" cy="287.65" r=".49"/><circle class="cls-1" cx="635.81" cy="385.15" r=".49"/><path class="cls-1" d="M148.3,344.15c0,.98-.79,1.77-1.77,1.77s-1.77-.79-1.77-1.77,.79-1.77,1.77-1.77,1.77,.79,1.77,1.77Z"/><path class="cls-1" d="M166.77,312.6c0,.49-.4,.88-.88,.88s-.88-.4-.88-.88,.4-.88,.88-.88,.88,.4,.88,.88Z"/><path class="cls-1" d="M146.24,385.23c0,.49-.4,.88-.88,.88s-.88-.4-.88-.88,.4-.88,.88-.88,.88,.4,.88,.88Z"/><path class="cls-1" d="M378.21,338.29c0,.49-.4,.88-.88,.88s-.88-.4-.88-.88,.4-.88,.88-.88,.88,.4,.88,.88Z"/><circle class="cls-1" cx="183.3" cy="348.27" r=".88"/><circle class="cls-1" cx="223.85" cy="315.46" r=".49"/><circle class="cls-1" cx="247.93" cy="330.94" r=".49"/><circle class="cls-1" cx="231.79" cy="379.38" r=".49"/><circle class="cls-1" cx="282.12" cy="357.07" r=".49"/><circle class="cls-1" cx="221.23" cy="376.09" r=".49"/><path class="cls-1" d="M355.83,371.15c0,.98-.79,1.77-1.77,1.77s-1.77-.79-1.77-1.77,.79-1.77,1.77-1.77,1.77,.79,1.77,1.77Z"/><path class="cls-1" d="M298.83,354.38c0,.98-.79,1.77-1.77,1.77s-1.77-.79-1.77-1.77,.79-1.77,1.77-1.77,1.77,.79,1.77,1.77Z"/><path class="cls-1" d="M338.71,311.64c0,.49-.4,.88-.88,.88s-.88-.4-.88-.88,.4-.88,.88-.88,.88,.4,.88,.88Z"/><path class="cls-1" d="M427.72,357.17c0,.49-.4,.88-.88,.88s-.88-.4-.88-.88,.4-.88,.88-.88,.88,.4,.88,.88Z"/><circle class="cls-1" cx="394.81" cy="455.38" r=".49"/><circle class="cls-1" cx="345.25" cy="352.8" r=".49"/><circle class="cls-1" cx="378.37" cy="332.58" r=".49"/><circle class="cls-1" cx="317.3" cy="384.27" r=".88"/><path class="cls-1" d="M305.34,399.8c0,.49-.4,.88-.88,.88s-.88-.4-.88-.88,.4-.88,.88-.88,.88,.4,.88,.88Z"/><circle class="cls-1" cx="261.36" cy="355.71" r=".88"/></g></g></g></g></svg>