<?xml version="1.0" standalone="no"?>
<!DOCTYPE svg PUBLIC "-//W3C//DTD SVG 20010904//EN"
 "http://www.w3.org/TR/2001/REC-SVG-20010904/DTD/svg10.dtd">
<svg version="1.0" xmlns="http://www.w3.org/2000/svg"
 width="512.000000pt" height="512.000000pt" viewBox="0 0 512.000000 512.000000"
 preserveAspectRatio="xMidYMid meet">

<g transform="translate(0.000000,512.000000) scale(0.100000,-0.100000)"
fill="#000000" stroke="none">
<path d="M2030 4761 l0 -249 -47 -12 c-71 -17 -267 -96 -352 -140 l-76 -40
-175 175 -175 175 -377 -377 -378 -378 175 -175 175 -175 -40 -76 c-44 -85
-123 -281 -140 -351 l-12 -48 -249 0 -249 0 0 -530 0 -530 248 0 247 0 33
-103 c19 -56 41 -119 50 -140 l17 -38 297 298 296 298 -10 65 c-14 92 -3 318
21 420 114 498 495 875 992 981 135 29 361 32 491 6 519 -103 914 -492 1025
-1007 25 -117 25 -371 0 -490 -107 -503 -465 -885 -950 -1012 -71 -19 -111
-22 -304 -23 l-221 -1 -297 -289 -296 -289 28 -15 c15 -8 78 -31 138 -52 l110
-38 3 -245 2 -246 530 0 530 0 0 249 0 249 48 12 c70 17 266 96 351 140 l76
40 175 -175 175 -175 377 377 378 378 -175 175 -175 175 40 76 c44 85 123 281
140 351 l12 48 249 0 249 0 0 530 0 530 -249 0 -249 0 -12 48 c-17 70 -96 266
-140 351 l-40 76 175 175 175 175 -378 378 -377 377 -175 -175 -175 -175 -76
40 c-85 44 -281 123 -351 140 l-48 12 0 249 0 249 -530 0 -530 0 0 -249z"/>
<path d="M2453 3324 c-297 -59 -525 -286 -590 -587 -18 -86 -12 -252 11 -337
l16 -55 -144 -145 c-795 -802 -1441 -1471 -1464 -1515 -36 -67 -38 -186 -5
-256 27 -60 92 -125 152 -152 70 -33 189 -31 256 5 44 23 719 675 1510 1459
l150 149 55 -16 c87 -24 232 -29 327 -11 153 29 274 91 382 197 85 83 137 163
178 271 57 152 65 324 22 473 l-11 39 -238 -238 -238 -238 -148 74 c-166 84
-157 74 -251 264 l-58 115 239 239 239 239 -44 12 c-117 32 -232 36 -346 14z"/>
</g>
</svg>
